/* XPM */
static char *result[] = {
/* columns rows colors chars-per-pixel */
"64 64 5 1 ",
"  c #070824",
". c #121339",
"X c #3D2D50",
"o c #922690",
"O c #38516C",
/* pixels */
"OOOOOOOOOOOOOOOOOOOOOOOOOOOOOOOOOOOOOOOOOOOOOOOOOOOOOOOOOOOOOOOO",
"OOOOOOOOOOOOOOOOOOOOOOOOOOOOOOOOOOOOOOOOOOOOOOOOOOOOOOOOOOOOOOOO",
"OOOOOOOOOOOOOOOOOOOOOOOOOOOOOOOOOOOOOOOOOOOOOOOOOOOOOOOOOOOOOOOO",
"OOOOOOOOOOOOOOOOOOOOOOOOOOOOOOOOOOOOOOOOOOOOOOOOOOOOOOOOOOOOOOOO",
"OOOOOOOOOOOOOOOOOOOOOOOOOOOOOOOOOOOOOOOOOOOOOOOOOOOOOOOOOOOOOOOO",
"OOOOOOOOOOOOOOOOOOOOOOOOOOOOOOOOOOOOOOOOOOOOOOOOOOOOOOOOOOOOOOOO",
"OOOOOOOOOOOOOOOOOOOOOOOOOOOOOOOOOOOOOOOOOOOOOOOOOOOOOOOOOOOOOOOO",
"OOOOOOOOOOOOOOOOOOOOOOOOOOOOOOOO OOOOOOOOOOOOOOOOOOOOOOOOOOOOOOO",
"OOOOOOOOOOOOOOOOOOOOOOOOOOOOOOOO OOOOOOOOOOOOOOOOOOOOOOOOOOOOOOO",
"OOOOOOOOOOOOOOOOOOOOOOOOOOOOOOO OOOOOOOOOOOOOOOOOOOOOOOOOOOOOOOO",
"OOOOOOOOOOOOOOOOOOOOOOOOOOOOOO OOOOOOOOOOOOOOOOOOOOOOOOOOOOOOOOO",
"OOOOOOOOOOOOOOOOOOOOOOOOOO OOO  OOOOO OOOOOOOOOOOOOOOOOOOOOOOOOO",
"OOOOOOOOOOOOOOOOOOOOOOOOO OOOOO  OOO OOOOOOOOOOOOOOOOOOOOOOOOOOO",
"OOOOOOOOOOOOOOOOOOOOOOOOO OOOO  OOOO OOOOOOOOOOOOOOOOOOOOOOOOOOO",
"OOOOOOOOOOOOOOOOOOOOOOOOO OOOO   OOO OOOOOOOOOOOOOOOOOOOOOOOOOOO",
"OOOOOOOOOOOOOOOOOOOO OOOO OOOO  OOOO OOOOOOOOOOOOOOOOOOOOOOOOOOO",
"OOOOOOOOOOOOOOOOOOOO OOOO OOOO  OOO  OOOOOOOOOOOOOOOOOOOOOOOOOOO",
"OOOOOOOOOOOOOOOOOOO  OOO  OOO  OOOO   OOOOOOOOOOOOOOOOOOOOOOOOOO",
"OOOOOOOOOOOOOOOOOOO OOO   OOO   OOOO OOOOOOOOOOOOOOOOOOOOOOOOOOO",
"OOOOOOOOOOOOOOOOOO  OOO   OOOO  OOO  OOOOOOOOOOOOOOOOOOOOOOOOOOO",
"OOOOOOOOOOOOOOOOO  OOOO  OOOO   OO   OOOOOOOOOOOOOOOOOOOOOOOOOOO",
"OOOOOOOOOOOOOOOO   OOOO OOOOO   OO   OOOOOOOOOOOOOOOOOOOOOOOOOOO",
"OOOOOOOOOOOOOOOO  OOOO   OOOO        OOOOOOOOOOOOOOOOOOOOOOOOOOO",
"OOOOOOOOOOOOOOO   OOOOO   O       X  OOOOOOOOOOOOOOOOOOOOOOOOOOO",
"OOOOOOOOOOOOOOOO  OOOO          XX     O OOOOOOOOOOOOOOOOOOOOOOO",
"OOOOOOOOOOOOOOO  OOOOO  XX  XX           OOOOOOOO OOOOOOOOOOOOOO",
"OOOOOOOOOOOOOOO  OOO    XXX               OOOOOO    OOOOOOOOOOOO",
"OOOOOOOOOOOOOOO  OOO    X                   OOO   XX   OOOOOOOOO",
"OOOOOOOOOOOOOOO  O  XX                      OO   XXXX   OOOOOOOO",
"OOOOOOOOOOOOOO     XX                          XXXXXX X   OOOOOO",
"OOOOOOOOOOOOOO    XXX         X               XXXX X X    OOOOOO",
"OOOOOOOOOOOOOO    XX          X             XXXXXX  XX    OOOOOO",
"OOOOOOOOOOOOOO   XXX      X   XXX            XXXX   X      OOOOO",
"OOOOOOOOOOOOOO   XX            XX           X X            OOOOO",
"OOOOOOOOOOOOO   XXX   XX   X   XX        XXX  X            OOOOO",
"OOOOOOOOOOOOOO X      XXX  X   XXX       XXX XXX          OOOOOO",
"OOOOOOOOOOOOO              X X   XX     XXXXXXX          OOOOOOO",
"OOOOOOOOOOOOO      XX X      XX  XX     XXX   X          OOOOOOO",
"OOOOOOOOOOOOO         XX     XX  XX   XXXX             OOOOOOOOO",
"OOOOOOOOOOOOO          XX    XX      XXX    O          OOOOOOOOO",
"OOOOOOOOOOOOO XX       XXX         XXX     O      OOOOOOOOOOOOOO",
"OOOOOOOOOOO    X     XXXXXX     X X X     O      OOOOOOOOOOOOOOO",
"OOOOOOOOOO     X    X   XX X    X        O      OOOOOOOOOOOOOOOO",
"OOOOOOOO      XXXX       X XX          OO     OOOOOOOOOOOOOOOOOO",
"OOOOOOO      XXX  X       X           OOO    OOOOOOOOOOOOOOOOOOO",
"OOOOOO X oo XX X          XXX         OO     OOOOOOOOOOOOOOOOOOO",
"OOOOOO X oo                XXX X             OOOOOOOOOOOOOOOOOOO",
"OOOO  XX  . .            O  XX X             OOOOOOOOOOOOOOOOOOO",
"OOOO XX XX X      X      OO   X        O    OOOOOOOOOOOOOOOOOOOO",
"OOO   X   O    X XX      OOO  X   O         OOOOOOOOOOOOOOOOOOOO",
"OO   X O  OO X X X       OO  X   OOO         OOOOOOOOOOOOOOOOOOO",
"O     OOOO O   X    O    OO XX  OOOO    O    OOOOOOOOOOOOOOOOOOO",
"OO O   OOO          O   OO     OOOOOO   OO   OOOOOOOOOOOOOOOOOOO",
"OOOO OOOOOOX       OO   O     OOOOOOO    OO  OOOOOOOOOOOOOOOOOOO",
"OOOO OOOO O       OOO       OOOOOOOOO   O    OOOOOOOOOOOOOOOOOOO",
"OOOOOO O X     OOOOOO      OOOOOOOOOO      OOOOOOOOOOOOOOOOOOOOO",
"OOOOOOO   X   OOOOO       OOOOOOO         OOOOOOOOOOOOOOOOOOOOOO",
"OOOOOOO     OOOOO         OOOO         OOOOOOOOOOOOOOOOOOOOOOOOO",
"OOOOOOOOOOOOOOO           OOO  O     OOOOOOOOOOOOOOOOOOOOOOOOOOO",
"OOOOOOOOOOOOO    OO      OOOOOO     OOOOOOOOOOOOOOOOOOOOOOOOOOOO",
"OOOOOOOOOOO    OOO      OOOOOO      OOOOOOOOOOOOOOOOOOOOOOOOOOOO",
"OOOOOOOOO      OO    OOOOOOOOO  OOO OOOOOOOOOOOOOOOOOOOOOOOOOOOO",
"OOOOOOO     OOOO    OOOOOOOOO  OOOOOOOOOOOOOOOOOOOOOOOOOOOOOOOOO",
"OOOOO      OO     OOOOOOOOOOOOOOOOOOOOOOOOOOOOOOOOOOOOOOOOOOOOOO"
};
