/* XPM */
static char *result[] = {
/* columns rows colors chars-per-pixel */
"64 64 5 1 ",
"  c #070824",
". c #121339",
"X c #3D2D50",
"o c #922690",
"O c #38516C",
/* pixels */
"OOOOOOOOOOOOOOOOOOOOOOOOOOOOOOOOOOOOOOOOOOOOOOOOOOOOOOOOOOOOOOOO",
"OOOOOOOOOOOOOOOOOOOOOOOOOOOOOOOOOOOOOOOOOOOOOOOOOOOOOOOOOOOOOOOO",
"OOOOOOOOOOOOOOOOOOOOOOOOOOOOOOOOOOOOOOOOOOOOOOOOOOOOOOOOOOOOOOOO",
"OOOOOOOOOOOOOOOOOOOOOOOOOOOOOOOOOOOOOOOOOOOOOOOOOOOOOOOOOOOOOOOO",
"OOOOOOOOOOOOOOOOOOOOOOOOOOOOOOOOOOOOOOOOOOOOOOOOOOOOOOOOOOOOOOOO",
"OOOOOOOOOOOOOOOOOOOOOOOOOOOOOOOOOOOOOOOOOOOOOOOOOOOOOOOOOOOOOOOO",
"OOOOOOOOOOOOOOOOOOOOOOOOOOOOOOOOOOOOOOOOOOOOOOOOOOOOOOOOOOOOOOOO",
"OOOOOOOOOOOOOOOOOOOOOOOOOOOOOOOOOOOOOOOOOOOOOOOOOOOOOOOOOOOOOOOO",
"OOOOOOOOOOOOOOOOOOOOOOOOOOOOOOOOOOOOOOOOOOOOOOOOOOOOOOOOOOOOOOOO",
"OOOOOOOOOOOOOOOOOOOOOOOOOOOOOOOOOOOOOOOOOOOOOOOOOOOOOOOOOOOOOOOO",
"OOOOOOOOOOOOOOOOOOOOOOOOOOOOOOOOOOOOOOOOOOOOOOOOOOOOOOOOOOOOOOOO",
"OOOOOOOOOOOOOOOOOOOOOOOOOOOOOOOOOOOOOOO OOOOOOOOOOOOOOOOOOOOOOOO",
"OOOOOOOOOOOOOOOOOOOOOOOOOOOOOOOOOOOOOO  OOOOO  OOOOOOOOOOOOOOOOO",
"OOOOOOOOOOOOOOOOOOOOOOOOOOOOOOOOOOOOO  OOOO   OOOOOOOOOOOOOOOOOO",
"OOOOOOOOOOOOOOOOOOOOOOOOOOOOOO   OOO  OOOO   OOOOOOOOOOOOOOOOOOO",
"OOOOOOOOOOOOOOOOOOOOOOOOOO     OOO   OOOO  OOOOOOOOOOOOOOOOOOOOO",
"OOOOOOOOOOOOOOOOOOOOOOOOO    OOOO   OOOO  OOOOOOOOOOOOOOOOOOOOOO",
"OOOOOOOOOOOOOOOOOOOOOOOO   OOOOO   OOOO   OOOOOOOOOOOOOOOOOOOOOO",
"OOOOOOOOOOOOOOOOOOOOOO    OOOO    OOOO   OOOO    OOOOOOOOOOOOOOO",
"OOOOOOOOOOOOOOOOOOOOOO  OOOOO    OOOO   OOOO   OOOOOOOOOOOOOOOOO",
"OOOOOOOOOOOOOOOOOOOOO   OOOOO    OOO    OOO  OOOOOOOOOOOOOOOOOOO",
"OOOOOOOOOOOOOOOOOOOO   OOO             OOO   OOOOOOOOOOOOOOOOOOO",
"OOOOOOOOOOOOOOOOOOOO   O      XXX           OOOOOOOOOOOOOOOOOOOO",
"OOOOOOOOOOOOOOOOOOO     XXXX  XXX  XX       OOOOOOOOOOOOOOOOOOOO",
"OOOOOOOOOOOOOOOOOOO    XXXX            XXX  OOOOOOOOOOOOOOOOOOOO",
"OOOOOOOOOOOOOOOOOO   XXXXX                   OOOOOOOOOOOOOOOOOOO",
"OOOOOOOOOOOOOOOOOO  XXXX                     OOOOOOOOOOOOOOOOOOO",
"OOOOOOOOOOOOOOOOOOXXXX                        OOOOOOOOOOOOOOOOOO",
"OOOOOOOOOOOOOO                    X           OOOOOOOOOOOOOOOOOO",
"OOOOOOOOOOOOO  XXX            X   X            OOOOOOOOOOOOOOOOO",
"OOOOOOOOOOO        X X   XX   X   XX           OOOOOOOOOOOOOOOOO",
"OOOOOOOOOO     X X X     XXX  X   XX           OOOOOOOOOOOOOOOOO",
"OOOOOOOOO     XXXX         X  X   XX            OOOOOOOOOOOOOOOO",
"OOOOOOO    oo XXX   X    X X  X   XX            OOO    OOOOOOOOO",
"OOOOO  XXX oo  XX   X    X X  X   XX                    OOOOOOOO",
"OOOOO XXXX...     X X    XX   XX  XX               XXXXX OOOOOOO",
"OOOO  XXXXXX      X X    XX   XX  XX          XXXXXXXXXX  OOOOOO",
"OOO  X            X    X XX   XX  XX         XXXXXXXXXXX   OOOOO",
"OO     O  OO X  X X    X XX    X              XXXXX  X XX   OOOO",
"OO O O OOOOO    X      XXXX    X O  O                 XX    OOOO",
"OO O O OOOOOO  X        XXX      O  OO                X     OOOO",
"OOOO OOOOOOOX           XXX      OO  OOO                    OOOO",
"OOOOOOOOOOOO      OOO    XX   O   O  OOOOOO                 OOOO",
"OOOOOOOOOOO       OOO    XX  OO   O  OOOO                  OOOOO",
"OOOOOOOOO       OOOOO    XX   OO  O  OOOO    X X           OOOOO",
"OOOOOOO  XXX    OOOOO    XX   OOOOOOOOOO     XXX X       OOOOOOO",
"OOOOOOOOO    OOOOOOOO    XX   OOOOOOOOOO    XXX XX      OOOOOOOO",
"OOOOOOOOOOOOOOOOOOOOO    XX X OOOOOOOOOO    XXXXX     OOOOOOOOOO",
"OOOOOOOOOOOOOOOOOOOOO    XX X OOOOOOOOO     XXXX    OOOOOOOOOOOO",
"OOOOOOOOOOOOOOOOOOOOO    XX X OOOOOOOO     XXXX   OOOOOOOOOOOOOO",
"OOOOOOOOOOOOOOOOOOOO     XX X OOOOOOOO    XXXX   OOOOOOOOOOOOOOO",
"OOOOOOOOOOOOOOOOOOO      XXX  OOOOOOOO    XXX  OOOOOOOOOOOOOOOOO",
"OOOOOOOOOOOOOOOOOO      XXXX  OOOOOOO    XXX  OOOOOOOOOOOOOOOOOO",
"OOOOOOOOOOOOOOOOO     XXXX    OOOOOOO   XXX  OOOOOOOOOOOOOOOOOOO",
"OOOOOOOOOOOOOOOO     XX       OOOOOO    XX  OOOOOOOOOOOOOOOOOOOO",
"OOOOOOOOOOOOOOO    XXX       OOOOOOO   XXX OOOOOOOOOOOOOOOOOOOOO",
"OOOOOOOOOOOOOO    XX   OOOOOOOOOOOO    XX   OOOOOOOOOOOOOOOOOOOO",
"OOOOOOOOOOOOO       OOOOOOOOOOOOOOO                    OOOOOOOOO",
"OOOOOOOOOOOO      OOOOOOOOOOOOOOOOOO                     OOOOOOO",
"OOOOOOOOOO      OOOOOOOOOOOOOOOOOOOOO                     OOOOOO",
"OOOOOOOO      OOOOOOOOOOOOOOOOOOOOOOOOOOOOO                OOOOO",
"OOOOO       OOOOOOOOOOOOOOOOOOOOOOOOOOOOOOOOOOOOOOOOOOO      OOO",
"OO         OOOOOOOOOOOOOOOOOOOOOOOOOOOOOOOOOOOOOOOOOOOOOO      O",
"   OO  O  OOOOOOOOOOOOOOOOOOOOOOOOOOOOOOOOOOOOOOOOOOOOOO     O  "
};
