/* XPM */
static char *result[] = {
/* columns rows colors chars-per-pixel */
"64 64 8 1 ",
"  c #070824",
". c #36242C",
"X c #48373A",
"o c #22004A",
"O c #922690",
"+ c #92B5CD",
"@ c #FAEFCA",
"# c #38516C",
/* pixels */
"################################################################",
"######XXXXXXXXXXXXXXXXXXXXXXXXXXXXXXXX######XXXXXXXXXXXXXX######",
"#####.................................X####...............X#####",
"####...oooooooooooooooooooooooooooooo..X##...oooooooooooo..X####",
"####..X                              o.X##..X            o.X####",
"###o..X                              o.X#o..X            o.X####",
"###o..X   ++   + ++ +++ + + +++      o.X#o..X  @@ @ @    o.X####",
"##oo..X  +O++                    O   o.Xoo..X            o.X####",
"##o ..X  ++O+  ++ ++ + + +++ + + O   o.Xo ..X  @@@ @     o.X####",
"##oo..X   ++                     O   o.Xoo..X            o.X####",
"##o ..X        ++ ++ ++ ++ +     OO  o.Xo ..X  @@@ @@ @  o.X####",
"##oo..X                          OO  o.Xoo..X            o.X####",
"##o ..X                              o.Xo ..X  @@ @@     o.X####",
"##oo..X   ++   + + ++ + ++ + +       o.Xoo..X            o.X####",
"##o ..X  ++O+                     O  o.Xo ..X            o.X####",
"##oo..X  +O++  +++++ + +++ +     OO  o.Xoo..X  OO OO OOO o.X####",
"##o ..X   ++                     OO  o.Xo ..X            o.X####",
"##oo..X        ++ + + + + ++     OO  X..oo..X  O OO OOO  o.X####",
"##o ..X                             X..oo ..X            o.X####",
"##oo..X                            X..o#oo ..X           o.X####",
"##o ...XXXXXXXXXXXXXXXXXXXXXXXXXXXX..o###oo ..XXXXXXXXXXXX.X####",
"##oo................................o#####oo ..............X####",
"##o ....... o o o o o o o o o o o oo#######oo o o o o .....X####",
"##oo......ooooooooooooooooooooooooo#########oooooooooo ....X####",
"##oo o o o###########################################ooo o o####",
"###oooooo#############################################ooooo#####",
"################################################################",
"################################################################",
"################################################################",
"################################################################",
"################################################################",
"################################################################",
"################################################################",
"################################################################",
"################################################################",
"################################################################",
"################################################################",
"################################################################",
"################################################################",
"################################################################",
"################################################################",
"################################################################",
"################################################################",
"################################################################",
"################################################################",
"################################################################",
"################################################################",
"################################################################",
"################################################################",
"################################################################",
"################################################################",
"################################################################",
"################################################################",
"################################################################",
"################################################################",
"################################################################",
"################################################################",
"################################################################",
"################################################################",
"################################################################",
"################################################################",
"################################################################",
"################################################################",
"################################################################"
};
