/* XPM */
static char *result[] = {
/* columns rows colors chars-per-pixel */
"64 64 10 1 ",
"  c #36242C",
". c #581D76",
"X c #595060",
"o c #726568",
"O c #C20C6A",
"+ c #C05377",
"@ c #922690",
"# c #AE4099",
"$ c #E09982",
"% c #38516C",
/* pixels */
"%%%%%%%%%%%%%%%%%%%%%%%%%%%%%%%%%%%%%%%%%%%%%%%%%%%%%%%%%%%%%%%%",
"%%%%%%%%%%%%%%%%%%%%%%%%%%%%%%%%%%%%%%%%%%%%%%%%%%%%%%%%%%%%%%%%",
"%%%%%%%%%%%%%%%%%%%%%%%%%%%%%%%%%%%%%%%%%%%%%%%%%%%%%%%%%%%%%%%%",
"%%%%%%%%%%%%%%%%%%%%%%%%%%%%%%%%%%%%%%%%%%%%%%%%%%%%%%%%%%%%%%%%",
"%%%%%%%%%%%%%%%%%%%%%%%%%%%%%%%%%%%%%%%%%%%%%%%%%%%%%%%%%%%%%%%%",
"%%%%%%%%%%%%%%%%%%%%%%%%%%%%%%%%%%%%%%%%%%%%%%%%%%%%%%%%%%%%%%%%",
"%%%%%%%%%%%%%%%%%%%%%%%%%%%%%%%%%%%%%%%%%%%%%%%%%%%%%%%%%%%%%%%%",
"%%%%%%%%%%%%%%%%%%%%%%%%%%%%%%%%%%%%%%%%%%%%%%%%%%%%%%%%%%%%%%%%",
"%%%%%%%%%%%%%%%%%%%%%%%%%%%%%%%%%%%%%%%%%%%%%%%%%%%%%%%%%%%%%%%%",
"%%%%%%%%%%%%%%%%%%%%%%%%%%%%%%%%%%%%%%%%%%%%%%%%%%%%%%%%%%%%%%%%",
"%%%%%%%%%%%%%%%%%%%%%%%%%%%%%%%%%%%%%%%%%%%%%%%%%%%%%%%%%%%%%%%%",
"%%%%%%%%%%%%%%%%%%%%%%%%%%%%%%%%%%%%%%%%%%%%%%%%%%%%%%%%%%%%%%%%",
"%%%%%%%%%%%%%%%%%%%%%%%%%%%%%O%%%%%%%%%%%%%%%%%%%%%%%%%%%%%%%%%%",
"%%%%%%%%%%%%%%%%%%%%%%%%%%%%%O%%%%%%%%%%%%%%%%%%%%%%%%%%%%%%%%%%",
"%%%%%%%%%%%%%%%%%%%%%%%%%%%%%%O%%%%%%%%%%%%%%%%%%%%%%%%%%%%%%%%%",
"%%%%%%%%%%%%%%%%%%%%%%%%%%%O%%O%%%%%%%%%%%%%%%%%%%%%%%%%%%%%%%%%",
"%%%%%%%%%%%%%%%%%%%%%%%%%%%%%%%%%%%%%%%%%%%%%%%%%%%%%%%%%%%%%%%%",
"%%%%%%%%%%%%%%%%%%%%%%%%%%%%%%%%%%%%%%%%%%%%%%%%%%%%%%%%%%%%%%%%",
"..%%%%%%%%%%%%%%%%%%%%%%.%%%OO%%%%%%%%%%%%%%%%%%%%%%%%%%%%%%%%%%",
"...%%%%%%%%%%%%%%%%...@.@.....O%%%%%%%%%%%%%%%%%%%%%%%%%%%%%%%%%",
"....%%%%%%%%%%%%%..@@$@$$@@@@@OO%%%%%%%%%%%%%%%%%%%%%%%%%%%%%%%%",
".%...%%%%%%%%%%%%.@@@@$@$#@####.%%%%%%%%%%%%%%%%%%%%%%%%%%%%%%%%",
"%%....%%%%%%%......@@#$#$######.++++%%%%%%%%%%%%%%%%%%%%%%%%%%%%",
"%%%.@+.......@@@...@@##..Xooo@@.+$$$$$%%%%%%%%%%%%%%%%%%%%%%%%%%",
"%%%.@+$$@@@@@@@@..@@@@##..Xoo@#.+$$$$$$%%%%%%%%%%%%%%%%%%%%%%%%%",
"%%%%@+$$$@@@@@@@@...@@@##  XXoo@+$..$$$%%%%%%%%%%%%%%%%%%%%%%%%%",
"%%%%%%$$$@@@@@@@@.....###@@..XXoo.++.$$$%%%%%%%%%%%%%%%%%%%%%%%%",
"%%%%%%%@@@@@@@@@@....@...@###.XXoo@+.$$$%%%%%%%%%%%%%%%%%%%%%%%%",
"%%%%%%%%%%%@@@@@.....@@..@@@@...ooo@@$$%%%%%%%%%%%%%%%%%%%%%%%%%",
"%%%%%%%%%%%%%%@@.@..@.@@#.@@@ .XXXooo$$%%%%%%%%%%%%%%%%%%%%%%%%%",
"%%%%%%%%%%%%%%........@@@@....  X  ooo%%%%%%%%%%%%%%%%%%%%%%%%%%",
"%%%%%%%%%%%%%..@......@@@@@@@O@..X  Xooo%%%%%%%%%%%%%%%%%%%%%%%%",
"%%%%%%%%%%%%%.@@@.....@@@@@@@@OO#%%   Xooo%%%%%%%%%%%%%%%%%%%%%%",
"%%%%%%%%%%%.@@@@......#@@@@@@@@OO%%%%  XXo%%%%%%%%%%%%%%%%%%%%%%",
"%%%%%%%%%%..........%..........%%%O%%%% oooo%%%%%%%%%%%%%%%%%%%%",
"...%%%%%..........%%%%%%.@@..%%%O%%%%%%% oooo%%%%%%%%%%%%%%%%%%%",
".....%%..........%%%%%%%.@@@%%%%O%%%%%%%%% o%%%%%%%%%%%%%%%%%%%%",
".......++.......%%%%%%%%.@@@%%%%%%%%%%%%%%%%%%%%%%%%%%%%%%%%%%%%",
".%%%..@+++....%%%%%%%%%%.@@@%%%%%%O%%%%%%%%%%%%%%%%%%%%%%%%%%%%%",
"%%%%%%.@+++..%%%%%%%%%%%%@@@.%%%%%%%%%%%%%%%%%%%%%%%%%%%%%%%%%%%",
"%%%%%%%%%%%%%%%%%%%%%%%%%%@..@@%%%%%%%%%%%%%%%%%%%%%%%%%%%%%%%%%",
"%%%%%%%%%%%%%%%%%%%%%%%%%%%...@%%%%%%%%%%%%%%%%%%%%%%%%%%%%%%%%%",
"%%%%%%%%%%%%%%%%%%%%%%%%%%%...@@@%%%%%%%%%%%%%%%%%%%%%%%%%%%%%%%",
"%%%%%%%%%%%%%%%%%%%%%%%%%%%%@@@@%%%%%%%%%%%%%%%%%%%%%%%%%%%%%%%%",
"%%%%%%%%%%%%%%%%%%%%%%%%%%%%%%%%%%%%%%%%%%%%%%%%%%%%%%%%%%%%%%%%",
"%%%%%%%%%%%%%%%%%%%%%%%%%%%%%%%%%%%%%%%%%%%%%%%%%%%%%%%%%%%%%%%%",
"%%%%%%%%%%%%%%%%%%%%%%%%%%%%%%%%%%%%%%%%%%%%%%%%%%%%%%%%%%%%%%%%",
"%%%%%%%%%%%%%%%%%%%%%%%%%%%%%%%%%%%%%%%%%%%%%%%%%%%%%%%%%%%%%%%%",
"%%%%%%%%%%%%%%%%%%%%%%%%%%%%%%%%%%%%%%%%%%%%%%%%%%%%%%%%%%%%%%%%",
"%%%%%%%%%%%%%%%%%%%%%%%%%%%%%%%%%%%%%%%%%%%%%%%%%%%%%%%%%%%%%%%%",
"%%%%%%%%%%%%%%%%%%%%%%%%%%%%%%%%%%%%%%%%%%%%%%%%%%%%%%%%%%%%%%%%",
"%%%%%%%%%%%%%%%%%%%%%%%%%%%%%%%%%%%%%%%%%%%%%%%%%%%%%%%%%%%%%%%%",
"%%%%%%%%%%%%%%%%%%%%%%%%%%%%%%%%%%%%%%%%%%%%%%%%%%%%%%%%%%%%%%%%",
"%%%%%%%%%%%%%%%%%%%%%%%%%%%%%%%%%%%%%%%%%%%%%%%%%%%%%%%%%%%%%%%%",
"%%%%%%%%%%%%%%%%%%%%%%%%%%%%%%%%%%%%%%%%%%%%%%%%%%%%%%%%%%%%%%%%",
"%%%%%%%%%%%%%%%%%%%%%%%%%%%%%%%%%%%%%%%%%%%%%%%%%%%%%%%%%%%%%%%%",
"%%%%%%%%%%%%%%%%%%%%%%%%%%%%%%%%%%%%%%%%%%%%%%%%%%%%%%%%%%%%%%%%",
"%%%%%%%%%%%%%%%%%%%%%%%%%%%%%%%%%%%%%%%%%%%%%%%%%%%%%%%%%%%%%%%%",
"%%%%%%%%%%%%%%%%%%%%%%%%%%%%%%%%%%%%%%%%%%%%%%%%%%%%%%%%%%%%%%%%",
"%%%%%%%%%%%%%%%%%%%%%%%%%%%%%%%%%%%%%%%%%%%%%%%%%%%%%%%%%%%%%%%%",
"%%%%%%%%%%%%%%%%%%%%%%%%%%%%%%%%%%%%%%%%%%%%%%%%%%%%%%%%%%%%%%%%",
"%%%%%%%%%%%%%%%%%%%%%%%%%%%%%%%%%%%%%%%%%%%%%%%%%%%%%%%%%%%%%%%%",
"%%%%%%%%%%%%%%%%%%%%%%%%%%%%%%%%%%%%%%%%%%%%%%%%%%%%%%%%%%%%%%%%",
"%%%%%%%%%%%%%%%%%%%%%%%%%%%%%%%%%%%%%%%%%%%%%%%%%%%%%%%%%%%%%%%%"
};
