/* XPM */
static char *result[] = {
/* columns rows colors chars-per-pixel */
"64 64 10 1 ",
"  c #070824",
". c #36242C",
"X c #48373A",
"o c #22004A",
"O c #1A324B",
"+ c #1F3A56",
"@ c #2D445C",
"# c #38516C",
"$ c #922690",
"% c #9A7593",
/* pixels */
"################################################################",
"################################################################",
"###########################OOOOOOOOOOO##########################",
"##########################@O#########O@#########################",
"###############OOOOOOOOOOOOO#%%%%%%%#OOOOOOOOOOOO###############",
"##############O#######%#%#%##%$$$$$%##%#%#%######O##############",
"#############O############%##%%%%%%%##%###########O#############",
"############O######################################O############",
"###########O######@@@@@@@@@@@@@@@@@@@@@@@@@@@@######O###########",
"##########O######@oooooooooooooooooooooooooooo@######O##########",
"#########O######@o.............Xo.............o@######O#########",
"########O######@o..............Xo..............o@######O########",
"#######O@#####@o...............Xo...............o@######O#######",
"#######O@####@o................Xo................o@#####O#######",
"#######O@###@o.................Xo.................o@####O#######",
"#######O@###o..................Xo..................o@###O#######",
"#######O@###o..................Xo..................o@###O#######",
"#######O@###o..................Xo..................o@###O#######",
"#######O@###o..................Xo..................o@###O#######",
"#######O@###o..................Xo..................o@###O#######",
"#######O@###o..................Xo..................o@###O#######",
"@#@#@#@O@###o..................Xo..................o@###O#@#@#@#",
"#@#@#@#O@###o..................Xo..................o@###O@#@#@#@",
"@#@#@#@O@###o.XXXXXXXXXXXXXXXX.Xo.XXXXXXXXXXXXXXXX.o@###O#@#@#@#",
"#@#@#@#O@###o.XXX....X.X....XX.Xo.X....X.X..X..XXX.o@###O@#@#@#@",
"@#@#@#@O@###o.XXXXXXXXXXXXXXXX.X .XXXXXXXXXXXXXXXX.o@###O#@#@#@#",
"#@#@#@#O@###o.XXX.X.X.......XX.Xo.X........X.X.XXX.o@###O@#@#@#@",
"@#@#@#@O@###o.XXX.X.X.......XX.Xo.X........X.X..XX.o@###O#@#@#@#",
"#@#@#@#O@###o.XXXXXXXXXXXXXXXX.X .XXXXXXXXXXXXXXXX.o@###O@#@#@#@",
"@#@#@#@O@###o.XXX....X$$$$$$XX.Xo.X...X.X.X$$$$$XX.o@###O#@#@#@#",
"#@#@#@#O@###o.XXXXXXXXXXXXXXXX.X .XXXXXXXXXXXXXXXX.o@###O@#@#@#@",
"@#@#@#@O@###o..................Xo..................o@###O#@#@#@#",
"OOOOOOOO@###o..................Xo..................o@###OOOOOOOO",
"#######O@###o..................X ....X       ......o@###O#######",
"@@@@@@@O@###o..................Xo....X       ......o@###O@@@@@@@",
"@@@@@@@O@###o..................Xo....X @ $ @ ......o@###O@@@@@@@",
"@@@@@@@O@###o..................X ....X       ......o@###O@@@@@@@",
"@@@@@@@O@###o..................Xo....X $ @ @ ......o@###O@@@@@@@",
"@@@@@@@O@###o..................X ....X       ......o@###O@@@@@@@",
"@@@@@@@O@###o..................X ....X @ $ @ ......o@###O@@@@@@@",
"@@@@@@@O@###o..................X ....X       ......o@###O@@@@@@@",
"@@@@@@@O@###o..................X ....XXX   XX......o@###O@@@@@@@",
"@@@@@@@O@###o..................X .......XXX........o@###O@@@@@@@",
"@@@@@@@O@###o..................X ..................o@###O@@@@@@@",
"@@@@@@@O@###o..................X ..................o@###O@@@@@@@",
"@@@@@@@O@###o..................X ..................o@###O@@@@@@@",
"OOOOOOOO@###o..................X ..................o@###OOOOOOOO",
"O+O+O+OO@###o..................X ..................o@###O+O+O+O+",
"+O+O+O+O@###o..................X ..................o@###OO+O+O+O",
"O+O+O+OO@###o..................X ..................o@###O+O+O+O+",
"+O+O+O+O@###o..................X ..................o@###OO+O+O+O",
"O+O+O+OO@###o..................X ..................o@###O+O+O+O+",
"+O+O+O+O@###o..................X ..................o@###OO+O+O+O",
"O+O+O+OO@###o..................X ..................o@###O+O+O+O+",
"+O+O+O+O@###o..................X ..................o@###OO+O+O+O",
"O+O+O+OO+#+#o..................X ..................o+#+#O+O+O+O+",
"+O+O+O+O@+#+o..................X ..................o@+#+OO+O+O+O",
"O+O+O+OO+#+#o..................X ..................o+#+#O+O+O+O+",
"OOOOOOOO@+#+o..................X ..................o@+#+OOOOOOOO",
"OOOOOOOo++++o..................X ..................o++++oOOOOOOO",
"OOOOOOOo++++o                                      o++++oOOOOOOO",
"OOOOoOooooooooooooooooooooooooooooooooooooooooooooooooooooOoOOOO",
"################################################################",
"OOOOOOOOOOOOOOOOOOOOOOOOOOOOOOOOOOOOOOOOOOOOOOOOOOOOOOOOOOOOOOOO"
};
