/* XPM */
static char *result[] = {
/* columns rows colors chars-per-pixel */
"64 64 10 1 ",
"  c #36242C",
". c #581D76",
"X c #595060",
"o c #726568",
"O c #C20C6A",
"+ c #C05377",
"@ c #922690",
"# c #AE4099",
"$ c #E09982",
"% c #38516C",
/* pixels */
"%%%%%%%%%%%%%%%%%%%%%%%%%%%%%%%%%%%%%%%%%%%%%%%%%%%%%%%%%%%%%%%%",
"%%%%%%%%%%%%%%%%%%%%%%%%%%%%%%%%%%%%%%%%%%%%%%%%%%%%%%%%%%%%%%%%",
"%%%%%%%%%%%%%%%%%%%%%%%%%%%%%%%%%%%%%%%%%%%%%%%%%%%%%%%%%%%%%%%%",
"%%%%%%%%%%%%%%%%%%%%%%%%%%%%%%%%%%%%%%%%%%%%%%%%%%%%%%%%%%%%%%%%",
"%%%%%%%%%%%%%%%%%%%%%%%%%%%%%%%%%%%%%%%%%%%%%%%%%%%%%%%%%%%%%%%%",
"%%%%%%%%%%%%%%%%%%%%%%%%%%%%%%%%%%%%%%%%%%%%%%%%%%%%%%%%%%%%%%%%",
"%%%%%%%%%%%%%%%%%%%%%%%%%%%%%%%%%%%%%%%%%%%%%%%%%%%%%%%%%%%%%%%%",
"%%%%%%%%%%%%%%%%%%%%%%%%%%%%%%%%%%%%%%%%%%%%%%%%%%%%%%%%%%%%%%%%",
"%%%%%%%%%%%%%%%%%%%%%%%%%%%%%%%%%%%%%%%%%%%%%%%%%%%%%%%%%%%%%%%%",
"%%%%%%%%%%%%%%%%%%%%%%%%%%%%%%%%%%%%%%%%%%%%%%%%%%%%%%%%%%%%%%%%",
"%%%%%%%%%%%%%%%%%%%%%%%%%%%%%%%%%%%%%%%%%%%%%%%%%%%%%%%%%%%%%%%%",
"%%%%%%%%%%%%%%%%%%%%%%%%%%%%%%%%%%%%%%%%%%%%%%%%%%%%%%%%%%%%%%%%",
"%%%%%%%%%%%%%%%%%%%%%%%%%%%%%%%%%%%%%%%%%%%%%%%%%%%%%%%%%%%%%%%%",
"%%%%%%%%%%%%%%%%%%%%%%%%%%%%%%%%%%%%%%%%%%%%%%%%%%%%%%%%%%%%%%%%",
"%%%%%%%%%%%%%%%%%%%%%%%%%%%%%%%%%%%%%%%%%%%%%%%%%%%%%%%%%%%%%%%%",
"%%%%%%%%%%%%%%%%%%%%%%%%%%%%%%%%%%%%%%%%%%%%%%%%%%%%%%%%%%%%%%%%",
"%%%%%%%%%%%%%%%%%%%%%%%%%%%%%%%%%%%%%%%%%%%%%%%%%%%%%%%%%%%%%%%%",
"%%%%%%%%%%%%%%%%%%%%%%%%%%%%%%%%%%%%%%%%%%%%%%%%%%%%%%%%%%%%%%%%",
"%%%%%%%%%%%%%%%%%%%%%%%%%%%%%%%%%%%%%%%%%%%%%%%%%%%%%%%%%%%%%%%%",
"%%%%%%%%%%%%%%%%%%%%%%%%%%%%%%%%%%%%%%%%%%%%%%%%%%%%%%%%%%%%%%%%",
"%%%%%%%%%%%%%%%%%%%%%%%%%%%%%%%%@@@@%%%%%%%%%%%%%%%%%%%%%%%%%%%%",
"%%%%%%%%%%%%%%%%%%%%%%%%%%%%%%%@@@...%%%%%%%%%%%%%%%%%%%%%%%%%%%",
"%%%%%%%%%%%%%%%%%%%%%%%%%%%%%%%%%@...%%%%%%%%%%%%%%%%%%%%%%%%%%%",
"%%%%%%%%%%%%%%%%%%%%%%%%%%%%%%%%%@@..@%%%%%%%%%%%%%%%%%%%%%%%%%%",
"%%%%%%%%%%%%%%%%%%%%%%%%%%%%%%%%%%%.@@@%%%%%%%%%%%%..+++@.%%%%%%",
"%%%%%%%%%%%%%%%%%%%%%%%%%%%%%O%%%%%%@@@.%%%%%%%%%%....+++@..%%%.",
"%%%%%%%%%%%%%%%%%%%%%%%%%%%%%%%%%%%%@@@.%%%%%%%%.......++.......",
"%%%%%%%%%%%%%%%%%%%%o %%%%%%%%%O%%%%@@@.%%%%%%%..........%%.....",
"%%%%%%%%%%%%%%%%%%%oooo %%%%%%%O%%%..@@.%%%%%%..........%%%%%...",
"%%%%%%%%%%%%%%%%%%%%oooo %%%%O%%%..........%..........%%%%%%%%%%",
"%%%%%%%%%%%%%%%%%%%%%%oXX  %%%%OO@@@@@@@@#......@@@@.%%%%%%%%%%%",
"%%%%%%%%%%%%%%%%%%%%%%oooX   %%#OO@@@@@@@@.....@@@.%%%%%%%%%%%%%",
"%%%%%%%%%%%%%%%%%%%%%%%%oooX  X..@O@@@@@@@......@..%%%%%%%%%%%%%",
"%%%%%%%%%%%%%%%%%%%%%%%%%%ooo  X  ....@@@@........%%%%%%%%%%%%%%",
"%%%%%%%%%%%%%%%%%%%%%%%%%$$oooXXX. @@@.#@@.@..@.@@%%%%%%%%%%%%%%",
"%%%%%%%%%%%%%%%%%%%%%%%%%$$@@ooo...@@@@..@@.....@@@@@%%%%%%%%%%%",
"%%%%%%%%%%%%%%%%%%%%%%%%$$$.+@ooXX.###@...@....@@@@@@@@@@%%%%%%%",
"%%%%%%%%%%%%%%%%%%%%%%%%$$$.++.ooXX..@@###.....@@@@@@@@$$$%%%%%%",
"%%%%%%%%%%%%%%%%%%%%%%%%%$$$..$+@ooXX  ##@@@...@@@@@@@@$$$+@%%%%",
"%%%%%%%%%%%%%%%%%%%%%%%%%$$$$$$+.#@ooX..##@@@@..@@@@@@@@$$+@.%%%",
"%%%%%%%%%%%%%%%%%%%%%%%%%%$$$$$+.@@oooX..##@@...@@@.......+@.%%%",
"%%%%%%%%%%%%%%%%%%%%%%%%%%%%++++.######$#$#@@......%%%%%%%....%%",
"%%%%%%%%%%%%%%%%%%%%%%%%%%%%%%%%.####@#$@$@@@@.%%%%%%%%%%%%...%.",
"%%%%%%%%%%%%%%%%%%%%%%%%%%%%%%%%OO@@@@@$$@$@@..%%%%%%%%%%%%%....",
"%%%%%%%%%%%%%%%%%%%%%%%%%%%%%%%%%O.....@.@...%%%%%%%%%%%%%%%%...",
"%%%%%%%%%%%%%%%%%%%%%%%%%%%%%%%%%%OO%%%.%%%%%%%%%%%%%%%%%%%%%%..",
"%%%%%%%%%%%%%%%%%%%%%%%%%%%%%%%%%%%%%%%%%%%%%%%%%%%%%%%%%%%%%%%%",
"%%%%%%%%%%%%%%%%%%%%%%%%%%%%%%%%%%%%%%%%%%%%%%%%%%%%%%%%%%%%%%%%",
"%%%%%%%%%%%%%%%%%%%%%%%%%%%%%%%%%O%%O%%%%%%%%%%%%%%%%%%%%%%%%%%%",
"%%%%%%%%%%%%%%%%%%%%%%%%%%%%%%%%%O%%%%%%%%%%%%%%%%%%%%%%%%%%%%%%",
"%%%%%%%%%%%%%%%%%%%%%%%%%%%%%%%%%%O%%%%%%%%%%%%%%%%%%%%%%%%%%%%%",
"%%%%%%%%%%%%%%%%%%%%%%%%%%%%%%%%%%O%%%%%%%%%%%%%%%%%%%%%%%%%%%%%",
"%%%%%%%%%%%%%%%%%%%%%%%%%%%%%%%%%%%%%%%%%%%%%%%%%%%%%%%%%%%%%%%%",
"%%%%%%%%%%%%%%%%%%%%%%%%%%%%%%%%%%%%%%%%%%%%%%%%%%%%%%%%%%%%%%%%",
"%%%%%%%%%%%%%%%%%%%%%%%%%%%%%%%%%%%%%%%%%%%%%%%%%%%%%%%%%%%%%%%%",
"%%%%%%%%%%%%%%%%%%%%%%%%%%%%%%%%%%%%%%%%%%%%%%%%%%%%%%%%%%%%%%%%",
"%%%%%%%%%%%%%%%%%%%%%%%%%%%%%%%%%%%%%%%%%%%%%%%%%%%%%%%%%%%%%%%%",
"%%%%%%%%%%%%%%%%%%%%%%%%%%%%%%%%%%%%%%%%%%%%%%%%%%%%%%%%%%%%%%%%",
"%%%%%%%%%%%%%%%%%%%%%%%%%%%%%%%%%%%%%%%%%%%%%%%%%%%%%%%%%%%%%%%%",
"%%%%%%%%%%%%%%%%%%%%%%%%%%%%%%%%%%%%%%%%%%%%%%%%%%%%%%%%%%%%%%%%",
"%%%%%%%%%%%%%%%%%%%%%%%%%%%%%%%%%%%%%%%%%%%%%%%%%%%%%%%%%%%%%%%%",
"%%%%%%%%%%%%%%%%%%%%%%%%%%%%%%%%%%%%%%%%%%%%%%%%%%%%%%%%%%%%%%%%",
"%%%%%%%%%%%%%%%%%%%%%%%%%%%%%%%%%%%%%%%%%%%%%%%%%%%%%%%%%%%%%%%%",
"%%%%%%%%%%%%%%%%%%%%%%%%%%%%%%%%%%%%%%%%%%%%%%%%%%%%%%%%%%%%%%%%"
};
