/* XPM */
static char *result[] = {
/* columns rows colors chars-per-pixel */
"64 64 4 1 ",
"  c #22004A",
". c #3D2D50",
"X c #595060",
"o c #726568",
/* pixels */
"XXXXXXXXXXXXXXXXXXXXXXXXXXXXXXXXXXXXXXXXXXXXXXXXXXXXXXXXXXXXXXXX",
"XXXXXXXXXXXXXXXXXXXXXXXXXXXXXXXXXXXXXXXXXXXXXXXXXXXXXXXXXXXXXXXX",
"................................................................",
"oooooooooooooooooooooooooooooooooooooooooooooooooooooooooooooooo",
"XXXXXXXXXXXXXXXXXXXXXXXXXXXXXXXXXXXXXXXXXXXXXXXXXXXXXXXXXXXXXXXX",
"XXXXXXXXXXXXXXXXXXXXXXXXXXXXXXXXXXXXXXXXXXXXXXXXXXXXXXXXXXXXXXXX",
"XXXXXXXXXXXXXXXXXXXXXXXXXXXXXXXXXXXXXXXXXXXXXXXXXXXXXXXXXXXXXXXX",
"XXXXXXXXXXXXXXXXXXXXXXXXXXXXXXXXXXXXXXXXXXXXXXXXXXXXXXXXXXXXXXXX",
"XXXXXXXXXXXXXXXXXXXXXXXXXXXXXXXXXXXXXXXXXXXXXXXXXXXXXXXXXXXXXXXX",
".........                                             ..........",
"......... ........................................... ..........",
"XXXXXXXoo.XXXXXXXXXXXXXXXXXXXXXXXXXXXXXXXXXXXXXXXXXXX ..XXXXXXXX",
"XXXXXXXoo.XX..XXXXXXXXXXXXXXXXXXXXXXXXXXXXXXXXXXX..XX ..XXXXXXXX",
"XXXXXXXoo.XX..XXXXXXXXXXXXXXXXXXXXXXXXXXXXXXXXXXX..XX ..XXXXXXXX",
"XXXXXXXoo.XXXXXXXXXXXXXXXXXXXXXXXXXXXXXXXXXXXXXXXXXXX ..XXXXXXXX",
"XXXXXXXoo.XXXXXXXXXXXXXXXXXXXXXXXXXXXXXXXXXXXXXXXXXXX ..XXXXXXXX",
"XXXXXXXoo.XXXXXXXXXXXXXXXXXXXXXXXXXXXXXXXXXXXXXXXXXXX ..XXXXXXXX",
"XXXXXXXoo.XXXXXXXXXXXXXXXXXXXXXXXXXXXXXXXXXXXXXXXXXXX ..XXXXXXXX",
"XXXXXXXoo.XXXXXXXXXXXXXXXXXXXXXXXXXXXXXXXXXXXXXXXXXXX ..XXXXXXXX",
"XXXXXXXoo.XXXXXXXXX.........................XXXXXXXXX ..XXXXXXXX",
"XXXXXXXoo.XXXXXXXXXo........................XXXXXXXXX ..XXXXXXXX",
"XXXXXXXoo.XXXXXXXXXooXXXXXXXXXXXXXXXXXXXXX..XXXXXXXXX ..XXXXXXXX",
"XXXXXXXoo.XXXXXXXXXooXXXXXXXXXXXXXXXXXXXXX..XXXXXXXXX ..XXXXXXXX",
"XXXXXXXoo.XXXXXXXXXooXXXXXXXXXXXXXXXXXXXXX..XXXXXXXXX ..XXXXXXXX",
"XXXXXXXoo.XXXXXXXXXooXXXXXXXXXXXXXXXXXXXXX..XXXXXXXXX ..XXXXXXXX",
"XXXXXXXoo.XXXXXXXXXooXXXXXXXXXXXXXXXXXXXXX..XXXXXXXXX ..XXXXXXXX",
"XXXXXXXoo.XXXXXXXXXooXXXXXXXXXXXXXXXXXXXXX..XXXXXXXXX ..XXXXXXXX",
"XXXXXXXoo.XXXXXXXXXooXXXXXXXXXXXXXXXXXXXXX..XXXXXXXXX ..XXXXXXXX",
"XXXXXXXoo.XXXXXXXXXooXXXXXXXXXXXXXXXXXXXXX..XXXXXXXXX ..XXXXXXXX",
"XXXXXXXoo.XXXXXXXXXooXXXXXXXXXXXXXXXXXXXXX..XXXXXXXXX ..XXXXXXXX",
"XXXXXXXoo.XXXXXXXXXooXXXXXXXXXXXXXXXXXXXXX..XXXXXXXXX ..XXXXXXXX",
".......XX.XXXXXXXXXooXXXXXXXXXXXXXXXXXXXXX..XXXXXXXXX   ........",
"ooooooooo.XXXXXXXXXooXXXXXXXXXXXXXXXXXXXXX..XXXXXXXXX ..oooooooo",
"XXXXXXXoo.XXXXXXXXXooXXXXXXXXXXXXXXXXXXXXX..XXXXXXXXX ..XXXXXXXX",
"XXXXXXXoo.XXXXXXXXXooXXXXXXXXXXXXXXXXXXXXX..XXXXXXXXX ..XXXXXXXX",
"XXXXXXXoo.XXXXXXXXXooXXXXXXXXXXXXXXXXXXXXX..XXXXXXXXX ..XXXXXXXX",
"XXXXXXXoo.XXXXXXXXXooXXXXXXXXXXXXXXXXXXXXX..XXXXXXXXX ..XXXXXXXX",
"XXXXXXXoo.XXXXXXXXXooXXXXXXXXXXXXXXXXXXXXX..XXXXXXXXX ..XXXXXXXX",
"XXXXXXXoo.XXXXXXXXXooXXXXXXXXXXXXXXXXXXXXX..XXXXXXXXX ..XXXXXXXX",
"XXXXXXXoo.XXXXXXXXXooooooooooooooooooooooo..XXXXXXXXX ..XXXXXXXX",
"XXXXXXXoo.XXXXXXXXXoooooooooooooooooooooooo.XXXXXXXXX ..XXXXXXXX",
"XXXXXXXoo.XXXXXXXXXXXXXXXXXXXXXXXXXXXXXXXXXXXXXXXXXXX ..XXXXXXXX",
"XXXXXXXoo.XXXXXXXXXXXXXXXXXXXXXXXXXXXXXXXXXXXXXXXXXXX ..XXXXXXXX",
"XXXXXXXoo.XXXXXXXXXXXXXXXXXXXXXXXXXXXXXXXXXXXXXXXXXXX ..XXXXXXXX",
"XXXXXXXoo.XXXXXXXXXXXXXXXXXXXXXXXXXXXXXXXXXXXXXXXXXXX ..XXXXXXXX",
"XXXXXXXoo.XXXXXXXXXXXXXXXXXXXXXXXXXXXXXXXXXXXXXXXXXXX ..XXXXXXXX",
"XXXXXXXoo.XXXXXXXXXXXXXXXXXXXXXXXXXXXXXXXXXXXXXXXXXXX ..XXXXXXXX",
"XXXXXXXoo.XX..XXXXXXXXXXXXXXXXXXXXXXXXXXXXXXXXXXX..XX ..XXXXXXXX",
"XXXXXXXoo.XX..XXXXXXXXXXXXXXXXXXXXXXXXXXXXXXXXXXX..XX ..XXXXXXXX",
"XXXXXXXoo.XXXXXXXXXXXXXXXXXXXXXXXXXXXXXXXXXXXXXXXXXXX ..XXXXXXXX",
"XXXXXXXoo.XXXXXXXXXXXXXXXXXXXXXXXXXXXXXXXXXXXXXXXXXXX ..XXXXXXXX",
"XXXXXXXoo...............................................XXXXXXXX",
"XXXXXXXoXoooooo.oooooooooooooooooooooooooooooooo.ooooo..XXXXXXXX",
"XXXXXXXXooooooo.oooooooooooooooooooooooooooooooo.oooooo.XXXXXXXX",
"XXXXXXXXXXXXXXo.XXXXXXXXXXXXXXXXXXXXXXXXXXXXXXXo.XXXXXXXXXXXXXXX",
"XXXXXXXXXXXXXXo.XXXXXXXXXXXXXXXXXXXXXXXXXXXXXXXo.XXXXXXXXXXXXXXX",
"XXXXXXXXXXXXXXo.XXXXXXXXXXXXXXXXXXXXXXXXXXXXXXXo.XXXXXXXXXXXXXXX",
"XXXXXXXXXXXXXXo.XXXXXXXXXXXXXXXXXXXXXXXXXXXXXXXo.XXXXXXXXXXXXXXX",
"XXXXXXXXXXXXXXo.XXXXXXXXXXXXXXXXXXXXXXXXXXXXXXXo.XXXXXXXXXXXXXXX",
"................................................................",
"oooooooooooooooooooooooooooooooooooooooooooooooooooooooooooooooo",
"XXXXXXXXXXXXXXXXXXXXXXXXXXXXXXXXXXXXXXXXXXXXXXXXXXXXXXXXXXXXXXXX",
"oooooooooooooooXooooooooooooooooooooooooooooooooXooooooooooooooo",
"XXXXXXXXXXXXXXXXXXXXXXXXXXXXXXXXXXXXXXXXXXXXXXXXXXXXXXXXXXXXXXXX"
};
